PathFileType	4	(X/Y/Z)	Patient4_TMGait_0pt4_03_left_23.trc.trc
DataRate	CameraRate	NumFrames	NumMarkers	Units	OrigDataRate	OrigDataStartFrame	OrigNumFrames
74.074074074074	74.074074074074	6	33	mm	74.074074074074	124	       141
Frame#	Time	Sacral			L.Shoulder			Chest			R.Shoulder			Neck			R.ASIS			L.ASIS			R.Thigh.Superior			R.Thigh.Lateral			R.Thigh.Inferior			R.Patella			L.Thigh.Superior			L.Thigh.Lateral			L.Thigh.Inferior			L.Patella			L.Shank.Superior			L.Shank.Lateral			L.Shank.Inferior			R.Shank.Superior			R.Shank.Lateral			R.Shank.Inferior			R.Heel			R.Midfoot.Superior			R.Midfoot.Lateral			R.Toe			L.Heel			L.Midfoot.Lateral			L.Midfoot.Superior			L.Toe			L.Elbow			L.Wrist			R.Elbow			R.Wrist			
		X1	Y1	Z1	X2	Y2	Z2	X3	Y3	Z3	X4	Y4	Z4	X5	Y5	Z5	X6	Y6	Z6	X7	Y7	Z7	X8	Y8	Z8	X9	Y9	Z9	X10	Y10	Z10	X11	Y11	Z11	X12	Y12	Z12	X13	Y13	Z13	X14	Y14	Z14	X15	Y15	Z15	X16	Y16	Z16	X17	Y17	Z17	X18	Y18	Z18	X19	Y19	Z19	X20	Y20	Z20	X21	Y21	Z21	X22	Y22	Z22	X23	Y23	Z23	X24	Y24	Z24	X25	Y25	Z25	X26	Y26	Z26	X27	Y27	Z27	X28	Y28	Z28	X29	Y29	Z29	X30	Y30	Z30	X31	Y31	Z31	X32	Y32	Z32	X33	Y33	Z33	

124	31.790500000000	817.734060118693	1003.402583912422	530.684091188051	967.540146776325	1430.637063893871	329.283432937551	1096.048807673626	1359.964432621472	469.709120501538	1045.255162354251	1431.363181023769	656.754023992244	976.805690672861	1490.644521414560	485.616565749562	1059.392114046194	933.695737143504	612.088039756205	1005.723024085736	958.453784301143	341.281115098546	1057.182100899692	723.560726872463	586.795132303923	957.823083298051	628.885395319125	656.385950058705	1014.986943178027	563.326970451542	574.897710755936	997.647831724660	479.605630517566	583.430903248115	1071.834843343653	758.998838617121	360.102342237608	1000.052065667559	635.430091763044	293.045828248250	1103.216954242669	568.753606010990	344.589630208540	1124.207412286710	506.689897125866	342.102611347448	1106.598327360832	437.831270596583	332.014074669383	1037.505708583356	308.222443589693	285.809222336871	1128.916927363596	209.257525288052	333.059662141986	958.474745893017	395.526822163246	592.003410068361	875.461564046773	301.992425631494	655.180241854572	905.786341517059	201.840022304066	592.919251349291	759.971393532459	43.379987671322	557.961071679047	927.265408620386	95.302402597353	605.935590130668	837.394136010131	36.175756296170	638.427124254673	1045.761155698052	42.730958061049	643.829112085924	1043.835605716877	39.262386594443	375.491997706693	1114.653363433666	37.782877808279	292.674862878332	1192.866790594019	107.169842152731	312.087427793608	1322.272007014485	65.799124075250	280.237147218811	875.113553275383	1088.306842428905	221.562674022334	933.233922623528	833.453326874221	190.416921027187	1156.203953828271	1103.269136728252	766.342428734209	1391.281216192373	1134.574329117147	681.727528412345	
125	31.804000000000	819.031708823844	1002.574869734855	528.045886212889	968.374344273189	1429.467908827423	325.820508311117	1096.687312290614	1359.522827673982	466.762392238202	1045.156964574884	1431.196117775984	653.541411546468	977.122362411137	1489.950553386936	482.082587199512	1060.590182263413	933.221200340482	610.455003969891	1007.743044354659	957.415639943766	339.606926006037	1057.816088354304	722.699079111793	585.858855513650	957.363696846882	628.534244667861	654.966681553707	1014.581269208564	562.393356167046	573.958280105350	996.676322550660	478.481940485827	582.281106456827	1073.880965476360	757.410711359409	358.576709422064	1000.492998238604	633.972782397238	292.563404862250	1103.623887405022	567.405671405673	344.133229103408	1123.630870692599	504.678100521160	342.288288524043	1105.703481308531	435.501536842217	332.220206047670	1035.017460220791	306.621305486012	286.384368313752	1124.805024408735	206.602222463557	334.236183338946	956.436686134215	394.793286126329	591.008518078082	872.500943965035	302.310993221585	654.574409458514	901.772195461761	201.656147173529	592.560503655445	754.606947693548	43.813106778434	558.128130232437	922.058736295642	95.326441995117	605.980816500642	832.074953109645	36.287907391004	638.477394296011	1040.429104242094	42.406566136137	643.918385456072	1036.590673210045	38.701334322862	376.917877353397	1107.040006835647	36.730080931244	293.690506582365	1186.964341590108	103.967217312075	313.928553417811	1315.562203848739	59.909205263254	281.060287039621	877.621719122522	1086.848913740604	217.572030155975	939.177401304272	832.758304491357	186.023854504369	1155.264766233349	1102.099491559663	762.398327265228	1391.256677539586	1129.585147283775	678.223680211620	
126	31.817500000000	820.289767952503	1001.952690551781	525.292803054029	969.312345731743	1428.432155212860	322.240970541536	1097.410082087136	1359.235804310515	463.720806757440	1045.156778381775	1431.261615610711	650.205761147915	977.515577152527	1489.432545710258	478.406805566237	1061.733723541958	932.844343765759	608.637259090627	1009.707437484934	956.708780071614	337.817962555916	1058.512884225571	721.966576421318	584.624722355697	957.150332676129	628.259835714098	653.346060423648	1014.395202588661	561.574904961493	572.745321685710	995.988057240981	477.367811475958	580.918263813130	1075.994933751285	756.330609564199	357.170027404444	1001.640496317681	633.140910745776	291.674766423325	1104.510884340869	566.707512709626	343.716353428546	1123.414413290617	503.215671878160	342.371711467508	1105.282802290325	433.650722167894	332.148297002204	1033.130675238406	305.561922337919	286.303588026089	1121.058095583747	204.422169828494	334.994411622925	954.638427297091	394.131715383774	589.869596464085	869.721110262060	302.772374946345	653.863892350288	897.881732829013	201.588348139654	592.154884231585	749.270492927160	44.483754889083	558.340729236082	916.953517634440	95.417117983123	606.052772352057	826.805225051896	36.519430198322	638.542310319255	1035.145899510189	42.034493674109	644.017920610685	1029.771065654252	38.334375643063	377.831667615755	1099.936591600019	35.987571578306	294.270313747279	1181.285345222902	101.423149658841	315.276550101573	1309.226196107360	55.134822501297	281.582834341047	880.494216923621	1085.461041292228	213.482166839602	945.319668891763	832.125478665760	181.572747763201	1153.800952303187	1100.971487024936	758.528946844343	1390.942793868697	1123.365225793467	675.073230403250	
127	31.831000000000	821.486141899032	1001.588414435090	522.445049666379	970.343753113291	1427.590004214271	318.595256789448	1098.221153694401	1359.116448336913	460.601954432815	1045.312126922184	1431.578613347911	646.770694813533	977.999658263355	1489.123882875616	474.636392045975	1062.796968184283	932.602171263202	606.603448549067	1011.540072615362	956.363550845744	335.858600822640	1059.230475393214	721.413550727393	583.045190481850	957.202738733194	628.089813942613	651.525471948197	1014.455632528455	560.911874922488	571.253209231599	995.636554360539	476.282086892303	579.385632537440	1078.131823153600	755.853404147715	355.858239436833	1003.507419977586	632.942100930415	290.407015269684	1105.908806297811	566.672345621655	343.284422822509	1123.594911629231	502.308073577421	342.310561498797	1105.336424307987	432.289182036813	331.822003296304	1031.845374914601	305.055227851045	285.615451823839	1117.677456429105	202.751046551994	335.377064956096	953.125174047680	393.570040665266	588.618953639022	867.148726834471	303.412943980598	653.059974725370	894.142733354915	201.671901264281	591.722821581367	743.976030084555	45.465109787306	558.601158424483	911.973699484395	95.590988420494	606.165120909940	821.592843278098	36.913611780482	638.626270395387	1029.919023219271	41.609829130396	644.128526964347	1023.458506397802	38.139409676929	378.295930038017	1093.430788710501	35.528657802224	294.489412683806	1175.861764220420	99.582598015667	316.154407025549	1303.317593544019	51.601306225958	281.858074956155	883.740440212100	1084.210044713936	209.317959665170	951.649337455174	831.612374272922	177.108333432115	1151.844272785882	1099.934000269336	754.764775708450	1390.269878667081	1115.927973013407	672.286006817367	
128	31.844500000000	822.612383730771	1001.503135877513	519.501099840310	971.449251636965	1426.987289836175	314.926597232059	1099.113602953249	1359.166647122686	457.420778961513	1045.652104514527	1432.138749758122	643.259738575856	978.575433496975	1489.038419436133	470.817106762191	1063.766202086706	932.524428399547	604.330472453737	1013.202038790240	956.370164780072	333.670855928751	1059.940089551243	721.080561135886	581.097924896716	957.540176838513	628.045219215197	649.519330141159	1014.803290654931	560.435322469519	569.499838594238	995.689130448635	475.238583291457	577.751530171546	1080.270858506364	756.006414246079	354.594591163030	1006.034830037178	633.307839671998	288.826209202443	1107.795160070692	567.216184734511	342.774267893249	1124.172009765312	501.878409227221	342.081343651606	1105.808298738624	431.361323723017	331.293963590978	1031.078796043497	305.044892717889	284.443497961659	1114.599877455949	201.553872835829	335.468078750556	951.948614715409	393.126548105201	587.301232253541	864.816807729246	304.263856854444	652.178180578612	890.589182128705	201.937744293305	591.288610062029	738.741998597031	46.830641885543	558.906945752261	907.141295044564	95.862130689837	606.329542787026	816.443756802800	37.516164931589	638.731655481986	1024.749444786822	41.133432902355	644.249172133639	1017.626043969973	38.080275706462	378.406576133920	1087.488720731112	35.303531583075	294.443139520261	1170.660259503397	98.398351230546	316.633836180702	1297.798653140851	49.254776167959	281.948206359580	887.353219563333	1083.152638183280	205.089835881764	958.176040983191	831.276685866804	172.669111773772	1149.432187151231	1099.022934428622	751.133661285592	1389.141701324129	1107.299513372961	669.869710638781	
129	31.858000000000	823.672206055777	1001.682735607499	516.437524626712	972.604611749469	1426.648582979319	311.262874458753	1100.069440178408	1359.378161671270	454.187688534253	1046.167854419442	1432.905768049867	639.693726590693	979.231150163160	1489.168854460175	466.985357475806	1064.640040859792	932.628457719052	601.806789799745	1014.697801865153	956.680522683648	331.206817460168	1060.637917935450	720.991431425646	578.790975765796	958.185699436879	628.134464801307	647.352091759535	1015.495382116367	560.161567554896	567.523561457122	996.225421826096	474.242356863958	576.098499668328	1082.406871979731	756.733313161102	353.311365283780	1009.070978077346	634.100372734141	287.022173231593	1110.074899436732	568.169099258355	342.120081994581	1125.094198177046	501.790188173280	341.681757878159	1106.589450509157	430.764792059851	330.629733756615	1030.689280761426	305.420034868055	282.955672809767	1111.726926961950	200.745633986635	335.370977562916	951.167722562471	392.806673134732	585.966664440514	862.767581578093	305.348575990019	651.235514286026	887.261514685471	202.410234325097	590.876482654424	733.592144702526	48.651151224183	559.250459351864	902.475606865173	96.240794647322	606.553299300523	811.362390964431	38.373913081297	638.857528488166	1019.629264928147	40.613295843687	644.376082625615	1012.178645857853	38.115372389520	378.272734295762	1082.000067851638	35.251846850634	294.230138757937	1165.614123645375	97.758397414173	316.815754033134	1292.578828553075	47.909581283681	281.916198874694	891.308624620329	1082.327520747735	200.791281476653	964.929712625521	831.169863468638	168.283686434624	1146.604539402081	1098.255718015877	747.657725859293	1387.435074669681	1097.517265322101	667.832058685912	
